<svg version="1.1" id="Layer_1" xmlns="http://www.w3.org/2000/svg" x="0" y="0" width="350" height="91.717" viewBox="0 0 350 91.717" xml:space="preserve"><path id="path12_9_" fill="#0C0D10" d="M273.132 32.131h13.27v59.586h-13.27V32.131z"/><g id="g14_9_" transform="translate(268.64 696.274)"><path id="path16_9_" fill="#0C0D10" d="M-218.998-696.274V-604.556h13.27v-24.6h22.547v24.6h13.275v-59.587h-13.275v21.718h-22.547v-53.849h-13.27z"/></g><path id="path18_9_" fill="#0C0D10" d="M111.257 32.131h13.274v59.586h-13.274V32.131z"/><g id="g20_9_"><g id="g28_9_" transform="translate(737.26 522.396)"><path id="path30_9_" fill="#0C0D10" d="M-601.021-490.265h13.27l10.652 36.755 2.089 7.117c.405 1.715.842 2.604 1.32 2.472.475.133.911-.757 1.315-2.472l2.089-7.111 10.653-36.755h13.269l-15.767 50.945-.335 1.098-.134.405a10.246 10.246 0 0 1-6.088 6.494 16.28 16.28 0 0 1-10.009 0 10.277 10.277 0 0 1-6.089-6.499l-.128-.405-.341-1.098-15.766-50.946z"/></g><path id="path32_9_" fill="#0C0D10" d="M247.004 0h13.27v91.717h-13.27V0z"/><g id="g34_9_" transform="translate(1005.919 199.057)"><path id="path36_9_" fill="#0C0D10" d="M-820.034-107.175h13.263l3.661-12.598h20.801l3.659 12.598h13.274l-15.771-50.945-.342-1.097-.128-.405a10.231 10.231 0 0 0-6.089-6.499 16.28 16.28 0 0 0-10.009 0 10.246 10.246 0 0 0-6.072 6.499l-.128.405-.341 1.097-15.778 50.945zm20.774-25.867 3.17-10.893 2.061-7.122c.404-1.716.842-2.604 1.322-2.472.473-.133.91.756 1.314 2.472l2.066 7.122 3.165 10.893h-13.098z"/></g><g id="g38_9_" transform="translate(10.154 216.494)"><path id="path40_9_" fill="#0C0D10" d="M-8.278-127.834v-6.484l1.934.475c1.87.453 3.729.83 5.641 1.097a40.73 40.73 0 0 0 5.679.405c2.791 0 5.758-.277 7.958-1.349 1.935-.941 3.287-2.599 3.287-5.428 0-4.564-6.099-7.755-10.744-10.194l-1.726-.906c-3.239-1.693-6.494-3.568-8.991-6.051-2.664-2.621-4.406-5.859-4.406-10.169 0-6.131 2.461-10.414 6.291-13.274 4.48-3.346 10.804-4.64 17.157-4.64 1.87 0 3.842.123 5.822.314 1.982.191 3.895.442 5.717.703l1.348.191v7.735l-1.747-.203c-.362-.037-1.296-.159-2.28-.282a68.643 68.643 0 0 0-8.023-.703c-2.614 0-5.629.352-7.644 1.63a4.498 4.498 0 0 0-2.168 4.038c0 1.064.534 2.175 1.599 3.329a22.124 22.124 0 0 0 5.589 4.097c.974.532 1.922 1.065 2.875 1.555 7.942 4.225 16.717 8.896 16.717 19.018 0 6.259-2.59 10.584-6.568 13.461-4.735 3.431-11.421 4.692-17.92 4.692a62.789 62.789 0 0 1-7.122-.442c-2.322-.272-4.666-.65-6.978-1.064l-1.284-.241-.013-1.31z"/></g><g id="g42_9_" transform="translate(1691.255 696.274)"><path id="path44_9_" fill="#0C0D10" d="M-1378.725-696.274v55.968l19.281-23.959h17.067l-22.335 27.758 22.874 31.95h-17.067l-19.82-27.684v27.684h-13.271v-91.717h13.271z"/></g><g id="g46_9_" transform="translate(1859.944 665.486)"><path id="path48_9_" fill="#0C0D10" d="M-1516.242-659.796a1.001 1.001 0 0 0-1.066-1.022h-1.412v2.04h1.412a1.003 1.003 0 0 0 1.063-.937c.003-.028.003-.054.003-.081m1.815 5.352-1.693-3.334a2.088 2.088 0 0 0 1.401-2.029 2.329 2.329 0 0 0-2.493-2.37h-3.015v7.734h1.501v-3.084h1.065l1.497 3.084 1.737-.001zm-3.237-11.042a7.175 7.175 0 1 1-7.139 7.212v-.036a7.161 7.161 0 0 1 7.139-7.176"/></g></g></svg>